# This file uses centimeters as units for non-parametric coordinates.

mtllib darks_002.mtl
g default
v 0.309017 -0.951057 1.144033
v 0.587786 -0.809018 1.144033
v 0.809017 -0.587786 1.144033
v 0.951057 -0.309017 1.144033
v 1.000000 0.000000 1.144033
v 0.951057 0.309017 1.144033
v 0.809017 0.587785 1.144033
v 0.587785 0.809017 1.144033
v 0.309017 0.951057 1.144033
v 0.000000 1.000000 1.144033
v -0.309017 0.951057 1.144033
v -0.587785 0.809017 1.144033
v -0.809017 0.587785 1.144033
v -0.951057 0.309017 1.144033
v -1.000000 0.000000 1.144033
v -0.951057 -0.309017 1.144033
v -0.809017 -0.587785 1.144033
v -0.587785 -0.809017 1.144033
v -0.309017 -0.951057 1.144033
v 0.000000 -1.000000 1.144033
v 0.284426 -0.875373 1.269281
v 0.541010 -0.744637 1.269281
v 0.000000 0.000000 1.269281
v 0.744637 -0.541010 1.269281
v 0.875373 -0.284426 1.269281
v 0.920422 0.000000 1.269281
v 0.875373 0.284426 1.269281
v 0.744637 0.541010 1.269281
v 0.541010 0.744637 1.269281
v 0.284426 0.875373 1.269281
v 0.000000 0.920421 1.269281
v -0.284426 0.875373 1.269281
v -0.541010 0.744636 1.269281
v -0.744636 0.541010 1.269281
v -0.875373 0.284426 1.269281
v -0.920421 0.000000 1.269281
v -0.875373 -0.284426 1.269281
v -0.744636 -0.541010 1.269281
v -0.541010 -0.744636 1.269281
v -0.284426 -0.875372 1.269281
v 0.000000 -0.920421 1.269281
v 0.309017 -0.951057 1.318697
v 0.301641 -0.928354 1.342274
v 0.587786 -0.809018 1.318697
v 0.573754 -0.789705 1.342274
v 0.809017 -0.587786 1.318697
v 0.789705 -0.573754 1.342274
v 0.951057 -0.309017 1.318697
v 0.928354 -0.301641 1.342274
v 1.000000 0.000000 1.318697
v 0.976129 -0.000000 1.342274
v 0.951057 0.309017 1.318697
v 0.928354 0.301641 1.342274
v 0.809017 0.587785 1.318697
v 0.789705 0.573754 1.342274
v 0.587785 0.809017 1.318697
v 0.573754 0.789705 1.342274
v 0.309017 0.951057 1.318697
v 0.301640 0.928354 1.342274
v 0.000000 1.000000 1.318697
v 0.000000 0.976129 1.342274
v -0.309017 0.951057 1.318697
v -0.301640 0.928354 1.342274
v -0.587785 0.809017 1.318697
v -0.573754 0.789705 1.342274
v -0.809017 0.587785 1.318697
v -0.789705 0.573754 1.342274
v -0.951057 0.309017 1.318697
v -0.928354 0.301640 1.342274
v -1.000000 0.000000 1.318697
v -0.976129 0.000000 1.342274
v -0.951057 -0.309017 1.318697
v -0.928354 -0.301640 1.342274
v -0.809017 -0.587785 1.318697
v -0.789705 -0.573754 1.342274
v -0.587785 -0.809017 1.318697
v -0.573754 -0.789705 1.342274
v -0.309017 -0.951057 1.318697
v -0.301640 -0.928354 1.342274
v 0.000000 -1.000000 1.318697
v 0.000000 -0.976129 1.342274
v 0.291803 -0.898076 1.342274
v 0.284426 -0.875373 1.318697
v 0.555041 -0.763949 1.342274
v 0.541010 -0.744637 1.318697
v 0.763949 -0.555041 1.342274
v 0.744637 -0.541010 1.318697
v 0.898076 -0.291803 1.342274
v 0.875373 -0.284426 1.318697
v 0.944293 0.000000 1.342274
v 0.920422 0.000000 1.318697
v 0.898076 0.291803 1.342274
v 0.875373 0.284426 1.318697
v 0.763949 0.555041 1.342274
v 0.744637 0.541010 1.318697
v 0.555041 0.763949 1.342274
v 0.541010 0.744637 1.318697
v 0.291802 0.898076 1.342274
v 0.284426 0.875373 1.318697
v 0.000000 0.944293 1.342274
v 0.000000 0.920421 1.318697
v -0.291802 0.898076 1.342274
v -0.284426 0.875373 1.318697
v -0.555041 0.763949 1.342274
v -0.541010 0.744636 1.318697
v -0.763949 0.555041 1.342274
v -0.744636 0.541010 1.318697
v -0.898076 0.291802 1.342274
v -0.875373 0.284426 1.318697
v -0.944292 0.000000 1.342274
v -0.920421 0.000000 1.318697
v -0.898075 -0.291802 1.342274
v -0.875373 -0.284426 1.318697
v -0.763949 -0.555041 1.342274
v -0.744636 -0.541010 1.318697
v -0.555041 -0.763949 1.342274
v -0.541010 -0.744636 1.318697
v -0.291802 -0.898075 1.342274
v -0.284426 -0.875372 1.318697
v -0.000000 -0.944292 1.342274
v 0.000000 -0.920421 1.318697
vt 0.692950 0.243977
vt 0.705581 0.287250
vt 0.285994 0.272798
vt 0.709845 0.332127
vt 0.705591 0.377005
vt 0.692969 0.420280
vt 0.672431 0.460409
vt 0.644711 0.495957
vt 0.610797 0.525656
vt 0.571902 0.548444
vt 0.529415 0.563507
vt 0.484850 0.570308
vt 0.439791 0.568588
vt 0.395301 0.558540
vt 0.439740 0.095707
vt 0.484801 0.093992
vt 0.529366 0.100784
vt 0.571857 0.115839
vt 0.610756 0.138619
vt 0.644676 0.168310
vt 0.672404 0.203852
vt 0.558694 0.647464
vt 0.709983 0.237203
vt 0.687858 0.193995
vt 0.599438 0.647463
vt 0.517950 0.647466
vt 0.723584 0.283801
vt 0.477207 0.647467
vt 0.728176 0.332127
vt 0.436463 0.647468
vt 0.723594 0.380453
vt 0.395719 0.647470
vt 0.710002 0.427054
vt 0.354975 0.647471
vt 0.687886 0.470266
vt 0.314232 0.647472
vt 0.658035 0.508546
vt 0.273488 0.647474
vt 0.621515 0.540526
vt 0.232744 0.647475
vt 0.579631 0.565065
vt 0.192000 0.647476
vt 0.533879 0.581286
vt 0.151257 0.647478
vt 0.485892 0.588610
vt 0.110513 0.647479
vt 0.437385 0.586815
vt 0.069769 0.647480
vt 0.389850 0.088442
vt 0.843900 0.647455
vt 0.437328 0.077508
vt 0.803157 0.647456
vt 0.485841 0.075690
vt 0.762413 0.647458
vt 0.533829 0.083005
vt 0.721669 0.647459
vt 0.579585 0.099217
vt 0.680926 0.647460
vt 0.621474 0.123748
vt 0.640182 0.647462
vt 0.658000 0.155721
vt 0.705272 0.239072
vt 0.700289 0.241059
vt 0.679062 0.199606
vt 0.683583 0.196717
vt 0.718606 0.284751
vt 0.713337 0.285765
vt 0.723107 0.332123
vt 0.717743 0.332127
vt 0.718617 0.379495
vt 0.713347 0.378491
vt 0.705294 0.425177
vt 0.700307 0.423199
vt 0.683615 0.467537
vt 0.679089 0.464656
vt 0.654353 0.505062
vt 0.650451 0.501381
vt 0.618555 0.536412
vt 0.615415 0.532063
vt 0.577498 0.560467
vt 0.575232 0.555605
vt 0.532648 0.576369
vt 0.531337 0.571167
vt 0.485608 0.583550
vt 0.485299 0.578193
vt 0.438060 0.581788
vt 0.438760 0.576451
vt 0.391803 0.571295
vt 0.393553 0.098179
vt 0.438001 0.082544
vt 0.438717 0.087876
vt 0.485549 0.080751
vt 0.485250 0.086108
vt 0.532591 0.087921
vt 0.531289 0.093125
vt 0.577444 0.103812
vt 0.575187 0.108678
vt 0.618507 0.127857
vt 0.615374 0.132212
vt 0.654313 0.159199
vt 0.650416 0.162887
vt 0.558695 0.670210
vt 0.517951 0.670211
vt 0.477207 0.670213
vt 0.436464 0.670214
vt 0.395720 0.670215
vt 0.354976 0.670217
vt 0.314232 0.670218
vt 0.273489 0.670219
vt 0.232745 0.670221
vt 0.192001 0.670222
vt 0.151257 0.670224
vt 0.110514 0.670225
vt 0.069770 0.670226
vt 0.843901 0.670201
vt 0.803158 0.670202
vt 0.762414 0.670203
vt 0.721670 0.670205
vt 0.680926 0.670206
vt 0.640183 0.670208
vt 0.599439 0.670209
vt 0.393572 0.566257
vt 0.181786 0.168985
vt 0.395300 0.105826
vt 0.389901 0.575995
vt 0.391778 0.093151
vt 0.884645 0.670199
vt 0.388116 0.581060
vt 0.388050 0.083388
vt 0.884644 0.647454
vt 0.661895 0.152032
vt 0.692378 0.191104
vt 0.624605 0.119392
vt 0.581841 0.094350
vt 0.535129 0.077801
vt 0.486138 0.070334
vt 0.436608 0.072192
vt 0.436680 0.592136
vt 0.486204 0.593966
vt 0.535191 0.586487
vt 0.581899 0.569927
vt 0.624657 0.544874
vt 0.661939 0.512225
vt 0.692412 0.473146
vt 0.714989 0.429030
vt 0.728864 0.381456
vt 0.733540 0.332120
vt 0.728852 0.282785
vt 0.714965 0.235214
vt 0.431233 0.249512
vt 0.431320 0.295533
vt 0.416928 0.205770
vt 0.389807 0.168590
vt 0.352524 0.141610
vt 0.308729 0.127472
vt 0.262708 0.127559
vt 0.218966 0.141864
vt 0.154806 0.206268
vt 0.140668 0.250063
vt 0.140755 0.296084
vt 0.155060 0.339826
vt 0.182181 0.377006
vt 0.219464 0.403986
vt 0.263259 0.418124
vt 0.309280 0.418037
vt 0.353022 0.403732
vt 0.390202 0.376611
vt 0.417182 0.339328
vn 0.000000 0.000000 1.000000
vn 0.000000 0.000000 1.000000
vn 0.000000 0.000000 1.000000
vn 0.000000 0.000000 1.000000
vn 0.000000 0.000000 1.000000
vn 0.000000 0.000000 1.000000
vn 0.000000 0.000000 1.000000
vn 0.000000 0.000000 1.000000
vn 0.000000 0.000000 1.000000
vn 0.000000 0.000000 1.000000
vn 0.000000 0.000000 1.000000
vn 0.000000 0.000000 1.000000
vn 0.000000 0.000000 1.000000
vn -0.000000 0.000000 1.000000
vn -0.000000 0.000000 1.000000
vn 0.000000 0.000000 1.000000
vn 0.000000 0.000000 1.000000
vn 0.000000 0.000000 1.000000
vn 0.000000 0.000000 1.000000
vn -0.000000 0.000000 1.000000
vn -0.000000 0.000000 1.000000
vn 0.217150 -0.668319 0.711474
vn 0.217150 -0.668319 0.711474
vn -0.000000 -0.702712 0.711475
vn -0.000000 -0.702712 0.711475
vn 0.413045 -0.568507 0.711473
vn 0.413045 -0.568507 0.711473
vn 0.568506 -0.413044 0.711474
vn 0.568506 -0.413044 0.711474
vn 0.668319 -0.217150 0.711474
vn 0.668319 -0.217150 0.711474
vn 0.702713 0.000000 0.711474
vn 0.702713 0.000000 0.711474
vn 0.668319 0.217150 0.711474
vn 0.668319 0.217150 0.711474
vn 0.568506 0.413045 0.711474
vn 0.568506 0.413045 0.711474
vn 0.413044 0.568507 0.711473
vn 0.413044 0.568507 0.711473
vn 0.217151 0.668320 0.711473
vn 0.217151 0.668320 0.711473
vn -0.000000 0.702714 0.711472
vn -0.000000 0.702714 0.711472
vn -0.217151 0.668320 0.711473
vn -0.217151 0.668320 0.711473
vn -0.413044 0.568507 0.711474
vn -0.413044 0.568507 0.711474
vn -0.568506 0.413044 0.711474
vn -0.568506 0.413044 0.711474
vn -0.668319 0.217150 0.711474
vn -0.668319 0.217150 0.711474
vn -0.702713 0.000000 0.711474
vn -0.702713 -0.000000 0.711474
vn -0.668319 -0.217150 0.711474
vn -0.668319 -0.217150 0.711474
vn -0.568506 -0.413044 0.711474
vn -0.568506 -0.413044 0.711474
vn -0.413044 -0.568506 0.711474
vn -0.413044 -0.568506 0.711474
vn -0.217151 -0.668319 0.711474
vn -0.217151 -0.668319 0.711474
vn -0.217148 0.668319 0.711475
vn -0.217148 0.668319 0.711475
vn 0.000001 0.702711 0.711475
vn 0.000001 0.702711 0.711475
vn -0.413043 0.568507 0.711474
vn -0.413043 0.568507 0.711474
vn -0.568506 0.413044 0.711474
vn -0.568506 0.413044 0.711474
vn -0.668319 0.217150 0.711474
vn -0.668319 0.217150 0.711474
vn -0.702713 -0.000000 0.711474
vn -0.702713 -0.000000 0.711474
vn -0.668319 -0.217150 0.711474
vn -0.668319 -0.217150 0.711474
vn -0.568506 -0.413044 0.711474
vn -0.568506 -0.413044 0.711474
vn -0.413043 -0.568506 0.711474
vn -0.413043 -0.568507 0.711474
vn -0.217149 -0.668319 0.711475
vn -0.217149 -0.668319 0.711475
vn 0.000000 -0.702712 0.711474
vn 0.000000 -0.702712 0.711474
vn 0.217150 -0.668319 0.711474
vn 0.217150 -0.668319 0.711474
vn 0.413043 -0.568507 0.711474
vn 0.413043 -0.568507 0.711474
vn 0.568506 -0.413044 0.711474
vn 0.568506 -0.413044 0.711474
vn 0.668319 -0.217150 0.711474
vn 0.668319 -0.217150 0.711474
vn 0.702713 0.000000 0.711473
vn 0.702713 0.000000 0.711473
vn 0.668319 0.217150 0.711474
vn 0.668319 0.217150 0.711474
vn 0.568506 0.413044 0.711475
vn 0.568506 0.413044 0.711475
vn 0.413043 0.568506 0.711475
vn 0.413043 0.568506 0.711475
vn 0.217149 0.668318 0.711475
vn 0.217149 0.668318 0.711475
vn 0.587785 -0.809017 0.000000
vn 0.309016 -0.951057 0.000000
vn 0.309016 -0.951057 0.000000
vn 0.587785 -0.809017 0.000000
vn 0.809017 -0.587785 0.000000
vn 0.809017 -0.587785 0.000000
vn 0.951057 -0.309017 0.000000
vn 0.951057 -0.309017 0.000000
vn 1.000000 0.000000 0.000000
vn 1.000000 0.000000 0.000000
vn 0.951056 0.309017 0.000000
vn 0.951056 0.309017 0.000000
vn 0.809017 0.587785 0.000000
vn 0.809017 0.587785 0.000000
vn 0.587785 0.809017 0.000000
vn 0.587785 0.809017 0.000000
vn 0.309017 0.951057 0.000000
vn 0.309017 0.951057 0.000000
vn -0.000000 1.000000 0.000000
vn -0.000000 1.000000 0.000000
vn -0.309017 0.951057 0.000000
vn -0.309017 0.951057 0.000000
vn -0.587785 0.809017 0.000000
vn -0.587785 0.809017 0.000000
vn -0.809017 0.587785 0.000000
vn -0.809017 0.587785 0.000000
vn -0.951057 0.309017 0.000000
vn -0.951057 0.309017 0.000000
vn -1.000000 -0.000000 0.000000
vn -1.000000 -0.000000 0.000000
vn -0.951057 -0.309017 0.000000
vn -0.951057 -0.309017 0.000000
vn -0.809017 -0.587785 0.000000
vn -0.809017 -0.587785 0.000000
vn -0.587785 -0.809017 0.000000
vn -0.587785 -0.809017 0.000000
vn -0.309017 -0.951057 0.000000
vn -0.309017 -0.951057 0.000000
vn -0.000001 -1.000000 0.000000
vn -0.000001 -1.000000 0.000000
vn 0.000000 0.000000 1.000000
vn -0.000001 0.000000 1.000000
vn -0.000001 0.000000 1.000000
vn 0.000000 0.000000 1.000000
vn -0.000000 0.000000 1.000000
vn -0.000000 0.000000 1.000000
vn -0.000000 0.000000 1.000000
vn -0.000000 0.000000 1.000000
vn 0.000001 0.000000 1.000000
vn 0.000001 0.000000 1.000000
vn 0.000001 0.000000 1.000000
vn 0.000001 0.000000 1.000000
vn 0.000000 0.000000 1.000000
vn 0.000000 0.000000 1.000000
vn 0.000000 0.000000 1.000000
vn 0.000000 0.000000 1.000000
vn 0.000001 0.000000 1.000000
vn 0.000001 0.000000 1.000000
vn -0.000000 0.000000 1.000000
vn -0.000000 0.000000 1.000000
vn -0.000000 0.000000 1.000000
vn -0.000000 0.000000 1.000000
vn 0.000001 0.000000 1.000000
vn 0.000001 0.000000 1.000000
vn 0.000000 0.000000 1.000000
vn 0.000000 0.000000 1.000000
vn 0.000000 0.000000 1.000000
vn 0.000000 0.000000 1.000000
vn 0.000000 0.000000 1.000000
vn 0.000000 0.000000 1.000000
vn 0.000000 0.000000 1.000000
vn 0.000000 0.000000 1.000000
vn -0.000000 0.000000 1.000000
vn -0.000000 0.000000 1.000000
vn -0.000000 0.000000 1.000000
vn -0.000000 0.000000 1.000000
vn -0.000001 0.000000 1.000000
vn -0.000001 0.000000 1.000000
vn 0.000000 0.000000 1.000000
vn 0.000000 0.000000 1.000000
vn -0.309016 0.951057 0.000000
vn -0.587785 0.809017 0.000000
vn -0.587785 0.809017 0.000000
vn -0.309016 0.951057 0.000000
vn -0.809017 0.587785 0.000000
vn -0.809017 0.587785 0.000000
vn -0.951057 0.309017 0.000000
vn -0.951057 0.309017 0.000000
vn -1.000000 -0.000000 0.000000
vn -1.000000 -0.000000 0.000000
vn -0.951057 -0.309017 0.000000
vn -0.951057 -0.309017 0.000000
vn -0.809017 -0.587785 0.000000
vn -0.809017 -0.587785 0.000000
vn -0.587785 -0.809017 0.000000
vn -0.587785 -0.809017 0.000000
vn -0.309017 -0.951057 0.000000
vn -0.309017 -0.951057 0.000000
vn 0.000000 -1.000000 0.000000
vn 0.000000 -1.000000 0.000000
vn 0.309017 -0.951057 0.000000
vn 0.309017 -0.951057 0.000000
vn 0.587786 -0.809017 0.000000
vn 0.587786 -0.809017 0.000000
vn 0.809017 -0.587785 0.000000
vn 0.809017 -0.587785 0.000000
vn 0.951056 -0.309017 0.000000
vn 0.951056 -0.309017 0.000000
vn 1.000000 0.000000 0.000000
vn 1.000000 0.000000 0.000000
vn 0.951056 0.309017 0.000000
vn 0.951056 0.309017 0.000000
vn 0.809017 0.587785 0.000000
vn 0.809017 0.587785 0.000000
vn 0.587786 0.809017 0.000000
vn 0.587786 0.809017 0.000000
vn 0.309017 0.951057 0.000000
vn 0.309017 0.951057 0.000000
vn 0.000001 1.000000 0.000000
vn 0.000001 1.000000 0.000000
s 1
g pCylinder1
usemtl initialShadingGroup
f 21/151/1 22/168/2 23/3/3
f 22/168/2 24/167/4 23/3/3
f 24/167/4 25/166/5 23/3/3
f 25/166/5 26/165/6 23/3/3
f 26/165/6 27/164/7 23/3/3
f 27/164/7 28/163/8 23/3/3
f 28/163/8 29/162/9 23/3/3
f 29/162/9 30/161/10 23/3/3
f 30/161/10 31/160/11 23/3/3
f 31/160/11 32/159/12 23/3/3
f 32/159/12 33/158/13 23/3/3
f 33/158/13 34/123/14 23/3/3
f 34/123/14 35/157/15 23/3/3
f 35/157/15 36/156/16 23/3/3
f 36/156/16 37/155/17 23/3/3
f 37/155/17 38/154/18 23/3/3
f 38/154/18 39/153/19 23/3/3
f 39/153/19 40/152/20 23/3/3
f 40/152/20 41/150/21 23/3/3
f 41/150/21 21/151/1 23/3/3
s 2
f 42/149/22 43/23/23 81/24/24 80/132/25
f 43/23/23 42/149/22 44/148/26 45/27/27
f 45/27/27 44/148/26 46/147/28 47/29/29
f 47/29/29 46/147/28 48/146/30 49/31/31
f 49/31/31 48/146/30 50/145/32 51/33/33
f 51/33/33 50/145/32 52/144/34 53/35/35
f 53/35/35 52/144/34 54/143/36 55/37/37
f 55/37/37 54/143/36 56/142/38 57/39/39
f 57/39/39 56/142/38 58/141/40 59/41/41
f 59/41/41 58/141/40 60/140/42 61/43/43
f 61/43/43 60/140/42 62/139/44 63/45/45
f 63/45/45 62/139/44 64/138/46 65/47/47
f 65/47/47 64/138/46 66/128/48 67/125/49
f 67/49/49 66/129/48 68/137/50 69/51/51
f 69/51/51 68/137/50 70/136/52 71/53/53
f 71/53/53 70/136/52 72/135/54 73/55/55
f 73/55/55 72/135/54 74/134/56 75/57/57
f 75/57/57 74/134/56 76/133/58 77/59/59
f 77/59/59 76/133/58 78/131/60 79/61/61
f 79/61/61 78/131/60 80/132/25 81/24/24
s 3
f 82/62/62 83/63/63 121/64/64 120/65/65
f 83/63/63 82/62/62 84/66/66 85/67/67
f 85/67/67 84/66/66 86/68/68 87/69/69
f 87/69/69 86/68/68 88/70/70 89/71/71
f 89/71/71 88/70/70 90/72/72 91/73/73
f 91/73/73 90/72/72 92/74/74 93/75/75
f 93/75/75 92/74/74 94/76/76 95/77/77
f 95/77/77 94/76/76 96/78/78 97/79/79
f 97/79/79 96/78/78 98/80/80 99/81/81
f 99/81/81 98/80/80 100/82/82 101/83/83
f 101/83/83 100/82/82 102/84/84 103/85/85
f 103/85/85 102/84/84 104/86/86 105/87/87
f 105/87/87 104/86/86 106/88/88 107/122/89
f 107/89/89 106/126/88 108/90/90 109/91/91
f 109/91/91 108/90/90 110/92/92 111/93/93
f 111/93/93 110/92/92 112/94/94 113/95/95
f 113/95/95 112/94/94 114/96/96 115/97/97
f 115/97/97 114/96/96 116/98/98 117/99/99
f 117/99/99 116/98/98 118/100/100 119/101/101
f 119/101/101 118/100/100 120/65/65 121/64/64
s 4
f 44/26/102 42/22/103 1/102/104 2/103/105
f 46/28/106 44/26/102 2/103/105 3/104/107
f 48/30/108 46/28/106 3/104/107 4/105/109
f 50/32/110 48/30/108 4/105/109 5/106/111
f 52/34/112 50/32/110 5/106/111 6/107/113
f 54/36/114 52/34/112 6/107/113 7/108/115
f 56/38/116 54/36/114 7/108/115 8/109/117
f 58/40/118 56/38/116 8/109/117 9/110/119
f 60/42/120 58/40/118 9/110/119 10/111/121
f 62/44/122 60/42/120 10/111/121 11/112/123
f 64/46/124 62/44/122 11/112/123 12/113/125
f 66/48/126 64/46/124 12/113/125 13/114/127
f 68/50/128 66/130/126 13/127/127 14/115/129
f 70/52/130 68/50/128 14/115/129 15/116/131
f 72/54/132 70/52/130 15/116/131 16/117/133
f 74/56/134 72/54/132 16/117/133 17/118/135
f 76/58/136 74/56/134 17/118/135 18/119/137
f 78/60/138 76/58/136 18/119/137 19/120/139
f 80/25/140 78/60/138 19/120/139 20/121/141
f 42/22/103 80/25/140 20/121/141 1/102/104
s 5
f 43/23/142 45/27/143 84/66/144 82/62/145
f 45/27/143 47/29/146 86/68/147 84/66/144
f 47/29/146 49/31/148 88/70/149 86/68/147
f 49/31/148 51/33/150 90/72/151 88/70/149
f 51/33/150 53/35/152 92/74/153 90/72/151
f 53/35/152 55/37/154 94/76/155 92/74/153
f 55/37/154 57/39/156 96/78/157 94/76/155
f 57/39/156 59/41/158 98/80/159 96/78/157
f 59/41/158 61/43/160 100/82/161 98/80/159
f 61/43/160 63/45/162 102/84/163 100/82/161
f 63/45/162 65/47/164 104/86/165 102/84/163
f 65/47/164 67/125/166 106/88/167 104/86/165
f 67/49/166 69/51/168 108/90/169 106/126/167
f 69/51/168 71/53/170 110/92/171 108/90/169
f 71/53/170 73/55/172 112/94/173 110/92/171
f 73/55/172 75/57/174 114/96/175 112/94/173
f 75/57/174 77/59/176 116/98/177 114/96/175
f 77/59/176 79/61/178 118/100/179 116/98/177
f 79/61/178 81/24/180 120/65/181 118/100/179
f 81/24/180 43/23/142 82/62/145 120/65/181
s 6
f 83/63/182 85/67/183 22/2/184 21/1/185
f 85/67/183 87/69/186 24/4/187 22/2/184
f 87/69/186 89/71/188 25/5/189 24/4/187
f 89/71/188 91/73/190 26/6/191 25/5/189
f 91/73/190 93/75/192 27/7/193 26/6/191
f 93/75/192 95/77/194 28/8/195 27/7/193
f 95/77/194 97/79/196 29/9/197 28/8/195
f 97/79/196 99/81/198 30/10/199 29/9/197
f 99/81/198 101/83/200 31/11/201 30/10/199
f 101/83/200 103/85/202 32/12/203 31/11/201
f 103/85/202 105/87/204 33/13/205 32/12/203
f 105/87/204 107/122/206 34/14/207 33/13/205
f 107/89/206 109/91/208 35/15/209 34/124/207
f 109/91/208 111/93/210 36/16/211 35/15/209
f 111/93/210 113/95/212 37/17/213 36/16/211
f 113/95/212 115/97/214 38/18/215 37/17/213
f 115/97/214 117/99/216 39/19/217 38/18/215
f 117/99/216 119/101/218 40/20/219 39/19/217
f 119/101/218 121/64/220 41/21/221 40/20/219
f 121/64/220 83/63/182 21/1/185 41/21/221
